<svg id="Layer_1" data-name="Layer 1" xmlns="http://www.w3.org/2000/svg" viewBox="0 0 826.63 826.79"><defs><style>.cls-1{fill:#fff;stroke:#000;stroke-miterlimit:10;}.cls-2{fill:#208ce5;}</style></defs><title>logo</title><rect class="cls-1" x="212.25" y="195.42" width="426" height="452"/><path class="cls-2" d="M578,187.1a414.25,414.25,0,0,0-176.4,50c-17.6,9.6-44.1,27.3-60.6,40.5-17.3,13.8-49.6,46.1-63.4,63.4a425.62,425.62,0,0,0-65.5,115.3c-33.8,90.9-33.8,196.5,0,287.4A425.62,425.62,0,0,0,277.6,859c13.8,17.3,46.1,49.6,63.4,63.4a434.33,434.33,0,0,0,87.6,54c108.1,49.3,234.7,49.3,342.8,0a434.33,434.33,0,0,0,87.6-54c17.3-13.8,49.6-46.1,63.4-63.4a434.33,434.33,0,0,0,54-87.6c49.3-108.1,49.3-234.7,0-342.8a434.33,434.33,0,0,0-54-87.6c-13.8-17.3-46.1-49.6-63.4-63.4a420.83,420.83,0,0,0-144.6-75.1C671.5,190.2,623.4,184.8,578,187.1ZM607.6,396c40.9,3.2,74.8,14.5,105.4,35.1,21.1,14.2,35.8,29.2,50.1,50.9C792,525.8,803.5,590.5,793,649.6c-9.4,52.1-36.5,97-75.5,124.9-25.2,18-55.9,30.3-89.5,35.9-18.1,3-37.8,3.6-120.2,3.6H425V395h84.9C558.3,395,600.2,395.4,607.6,396Z" transform="translate(-186.75 -186.58)"/><path class="cls-2" d="M539,604.6V714.2l32.3-.5c37.2-.5,40.3-1,56.2-8.8,30.9-15.2,48.6-44.3,52.6-86.9,2.8-30-3.1-59.8-16.3-81.7-9.1-15.2-26.7-29.6-43.9-35.9-12.7-4.6-20.2-5.4-51.6-5.4H539Z" transform="translate(-186.75 -186.58)"/></svg>